/* XPM */
static char *_2d9773d446d4993f460162e86208a4fkg2Oipn6X9ZukvJG[] = {
/* columns rows colors chars-per-pixel */
"32 32 2 1 ",
"  c gray12",
". c white",
/* pixels */
"                                ",
"                                ",
"                                ",
"                                ",
"                                ",
"                                ",
"                                ",
"                                ",
"           .            .       ",
"           .           .        ",
"          ...          .        ",
"          .  .         .        ",
"          .  .         .        ",
"          .   .       .         ",
"         .    .       .         ",
"         .     .     .          ",
"        .      .     .          ",
"        .       .    .          ",
"        .       .    .          ",
"       .         .  .           ",
"       .         .  .           ",
"      .           ..            ",
"      .           ..            ",
"      .                         ",
"                                ",
"                                ",
"                                ",
"                                ",
"                                ",
"                                ",
"                                ",
"                                "
};
